<svg width="26" height="26" viewBox="0 0 26 26" fill="none" xmlns="http://www.w3.org/2000/svg">
<path d="M25.9694 3.39835C25.0496 3.90033 24.061 4.23958 23.0236 4.39213C24.0824 3.61104 24.8958 2.37423 25.2787 0.900406C24.2876 1.62373 23.19 2.14894 22.0216 2.43191C21.0861 1.20532 19.7532 0.438965 18.2779 0.438965C15.4454 0.438965 13.1487 3.26466 13.1487 6.75007C13.1487 7.2447 13.1941 7.72641 13.2816 8.18838C9.01887 7.92514 5.2395 5.41254 2.70984 1.59413C2.26831 2.52624 2.01538 3.61038 2.01538 4.76704C2.01538 6.95667 2.92083 8.88842 4.29712 10.0203C3.45643 9.98735 2.66546 9.70352 1.974 9.23082C1.97351 9.25719 1.97351 9.28352 1.97351 9.31014C1.97351 12.3681 3.74151 14.9188 6.08784 15.4987C5.65748 15.6429 5.20435 15.7201 4.73658 15.7201C4.40608 15.7201 4.08477 15.6804 3.77154 15.6069C4.42426 18.1141 6.31843 19.939 8.56287 19.9897C6.8075 21.6826 4.59595 22.6916 2.19288 22.6916C1.77887 22.6916 1.37061 22.6616 0.96936 22.6032C3.2392 24.394 5.93525 25.439 8.83172 25.439C18.2659 25.439 23.425 15.8221 23.425 7.48188C23.425 7.20829 23.4199 6.9361 23.41 6.66536C24.4122 5.77552 25.2818 4.66399 25.9694 3.39835Z" fill="#F99F00"/>
</svg>
