<svg width="26" height="26" viewBox="0 0 26 26" fill="none" xmlns="http://www.w3.org/2000/svg">
<path d="M12.9596 6.49907C9.414 6.49907 6.54166 9.36833 6.54166 12.9071C6.54166 16.4472 9.414 19.3165 12.9596 19.3165C16.5025 19.3165 19.3776 16.4472 19.3776 12.9071C19.3776 9.36833 16.5025 6.49907 12.9596 6.49907ZM12.9596 17.071C10.6565 17.071 8.78927 15.2067 8.78927 12.9085C8.78927 10.6089 10.6565 8.74596 12.9596 8.74596C15.2628 8.74596 17.1272 10.6089 17.1272 12.9085C17.1272 15.2067 15.2628 17.071 12.9596 17.071Z" fill="#F99F00"/>
<path d="M19.6331 7.75766C20.4596 7.75766 21.1296 7.08867 21.1296 6.26343C21.1296 5.43818 20.4596 4.76919 19.6331 4.76919C18.8065 4.76919 18.1365 5.43818 18.1365 6.26343C18.1365 7.08867 18.8065 7.75766 19.6331 7.75766Z" fill="#F99F00"/>
<path d="M24.8072 4.74424C24.1561 3.06843 22.8303 1.7433 21.1518 1.09598C20.1814 0.731435 19.1555 0.535993 18.1171 0.513815C16.7802 0.455598 16.3567 0.438965 12.9666 0.438965C9.57642 0.438965 9.14189 0.438965 7.8161 0.513815C6.78044 0.534607 5.75451 0.730049 4.78411 1.09598C3.1043 1.7433 1.7785 3.06843 1.12879 4.74424C0.763674 5.71453 0.567928 6.73748 0.547104 7.77429C0.487408 9.10774 0.46936 9.5305 0.46936 12.9168C0.46936 16.3017 0.46936 16.7328 0.547104 18.0593C0.567928 19.0961 0.763674 20.119 1.12879 21.0907C1.77989 22.7651 3.10569 24.0903 4.7855 24.739C5.75173 25.116 6.77767 25.3295 7.81887 25.3627C9.15578 25.4209 9.5792 25.439 12.9694 25.439C16.3595 25.439 16.794 25.439 18.1198 25.3627C19.1569 25.3419 20.1828 25.1451 21.1546 24.7819C22.833 24.1319 24.1588 22.8081 24.8099 21.1323C25.175 20.162 25.3708 19.1391 25.3916 18.1023C25.4513 16.7688 25.4694 16.346 25.4694 12.9598C25.4694 9.57347 25.4694 9.14378 25.3916 7.81726C25.3736 6.76659 25.1792 5.72561 24.8072 4.74424ZM23.1162 17.9567C23.1065 18.7551 22.9621 19.5466 22.6845 20.2965C22.2611 21.3873 21.3989 22.2495 20.3078 22.6681C19.565 22.944 18.7821 23.0881 17.9894 23.0992C16.6705 23.1602 16.2984 23.1754 12.9166 23.1754C9.532 23.1754 9.18632 23.1754 7.84247 23.0992C7.05255 23.0895 6.26678 22.944 5.52545 22.6681C4.4301 22.2509 3.56243 21.3887 3.13901 20.2965C2.86691 19.5563 2.71975 18.7731 2.70725 17.983C2.64756 16.6662 2.63368 16.2948 2.63368 12.9182C2.63368 9.54021 2.63368 9.19506 2.70725 7.85192C2.71697 7.05351 2.86135 6.26343 3.13901 5.51354C3.56243 4.41989 4.4301 3.55911 5.52545 3.14051C6.26678 2.86606 7.05255 2.72051 7.84247 2.70942C9.16272 2.64982 9.53339 2.63319 12.9166 2.63319C16.2998 2.63319 16.6469 2.63319 17.9894 2.70942C18.7821 2.71913 19.565 2.86467 20.3078 3.14051C21.3989 3.5605 22.2611 4.42266 22.6845 5.51354C22.9566 6.25372 23.1037 7.03688 23.1162 7.82697C23.1759 9.14516 23.1912 9.51526 23.1912 12.8932C23.1912 16.2698 23.1912 16.633 23.1315 17.9581H23.1162V17.9567Z" fill="#F99F00"/>
</svg>
