<svg width="26" height="26" viewBox="0 0 26 26" fill="none" xmlns="http://www.w3.org/2000/svg">
<path d="M25.4608 4.36953C25.1735 2.8387 24.3303 1.63081 23.2598 1.21867C21.3037 0.451467 13.478 0.438978 13.478 0.438978C13.478 0.438978 5.65355 0.426489 3.69618 1.15979C2.64693 1.56837 1.78004 2.80302 1.49024 4.33207C0.974359 7.1261 0.969362 12.9211 0.969362 12.9211C0.969362 12.9211 0.964366 18.7447 1.4765 21.5102C1.7638 23.0392 2.60695 24.2471 3.6787 24.6593C5.6548 25.4265 13.4593 25.439 13.4593 25.439C13.4593 25.439 21.285 25.4514 23.2411 24.7199C24.3103 24.3096 25.1573 23.1035 25.4483 21.5744C25.9654 18.7822 25.9692 12.9889 25.9692 12.9889C25.9692 12.9889 25.9942 7.16356 25.4608 4.36953ZM10.9748 18.2897L10.981 7.58463L17.4852 12.9461L10.9748 18.2897Z" fill="#F99F00"/>
</svg>
